<svg xmlns="http://www.w3.org/2000/svg" xmlns:xlink="http://www.w3.org/1999/xlink" width="500" zoomAndPan="magnify" viewBox="0 0 375 374.999991" height="500" preserveAspectRatio="xMidYMid meet" version="1.0"><defs><g/><clipPath id="71bb03aa06"><path d="M 61.628906 141.730469 L 99.933594 141.730469 L 99.933594 174.5625 L 61.628906 174.5625 Z M 61.628906 141.730469 " clip-rule="nonzero"/></clipPath><clipPath id="ef14a9fc70"><path d="M 34.953125 174.277344 L 65.59375 174.277344 L 65.59375 216.957031 L 34.953125 216.957031 Z M 34.953125 174.277344 " clip-rule="nonzero"/></clipPath></defs><g clip-path="url(#71bb03aa06)"><path fill="#000000" d="M 88.226562 159.070312 C 86.929688 159.070312 85.882812 158.023438 85.882812 156.734375 C 85.882812 155.445312 86.929688 154.398438 88.226562 154.398438 C 89.523438 154.398438 90.574219 155.445312 90.574219 156.734375 C 90.574219 158.023438 89.523438 159.070312 88.226562 159.070312 Z M 80.40625 159.070312 C 79.113281 159.070312 78.0625 158.023438 78.0625 156.734375 C 78.0625 155.445312 79.113281 154.398438 80.40625 154.398438 C 81.703125 154.398438 82.753906 155.445312 82.753906 156.734375 C 82.753906 158.023438 81.703125 159.070312 80.40625 159.070312 Z M 72.585938 159.070312 C 71.292969 159.070312 70.242188 158.023438 70.242188 156.734375 C 70.242188 155.445312 71.292969 154.398438 72.585938 154.398438 C 73.882812 154.398438 74.933594 155.445312 74.933594 156.734375 C 74.933594 158.023438 73.882812 159.070312 72.585938 159.070312 Z M 81.023438 141.9375 C 70.503906 141.734375 61.847656 148.183594 61.6875 156.347656 C 61.628906 159.1875 62.609375 161.859375 64.351562 164.144531 C 67.347656 167.976562 64.078125 174.558594 64.078125 174.558594 L 73.730469 170.421875 C 75.808594 171.078125 78.070312 171.457031 80.4375 171.503906 C 90.953125 171.710938 99.609375 165.257812 99.773438 157.09375 C 99.933594 148.929688 91.539062 142.144531 81.023438 141.9375 " fill-opacity="1" fill-rule="evenodd"/></g><g clip-path="url(#ef14a9fc70)"><path fill="#000000" d="M 64.648438 184.804688 L 55.164062 175.242188 C 54.578125 174.65625 53.703125 174.289062 52.828125 174.289062 L 38.238281 174.289062 C 36.414062 174.289062 34.953125 175.757812 34.953125 177.597656 L 34.953125 213.636719 C 34.953125 215.476562 36.414062 216.945312 38.238281 216.945312 L 62.3125 216.945312 C 64.136719 216.945312 65.59375 215.476562 65.59375 213.636719 L 65.59375 187.085938 C 65.59375 186.203125 65.230469 185.394531 64.648438 184.804688 Z M 56.257812 185.027344 C 55.527344 185.027344 54.945312 184.4375 54.945312 183.703125 L 54.945312 176.933594 L 62.96875 185.027344 Z M 56.257812 185.027344 " fill-opacity="1" fill-rule="nonzero"/></g><g fill="#000000" fill-opacity="1"><g transform="translate(71.810587, 217.217973)"><g><path d="M 3.703125 0 L 3.703125 -41.484375 L 16.46875 -41.484375 C 20.113281 -41.484375 23.375 -40.660156 26.25 -39.015625 C 29.132812 -37.378906 31.382812 -35.046875 33 -32.015625 C 34.613281 -28.984375 35.421875 -25.539062 35.421875 -21.6875 L 35.421875 -19.78125 C 35.421875 -15.914062 34.625 -12.484375 33.03125 -9.484375 C 31.445312 -6.484375 29.210938 -4.15625 26.328125 -2.5 C 23.441406 -0.851562 20.1875 -0.0195312 16.5625 0 Z M 12.25 -34.5625 L 12.25 -6.875 L 16.390625 -6.875 C 19.734375 -6.875 22.285156 -7.960938 24.046875 -10.140625 C 25.816406 -12.328125 26.71875 -15.453125 26.75 -19.515625 L 26.75 -21.71875 C 26.75 -25.9375 25.875 -29.128906 24.125 -31.296875 C 22.382812 -33.472656 19.832031 -34.5625 16.46875 -34.5625 Z M 12.25 -34.5625 "/></g></g></g><g fill="#000000" fill-opacity="1"><g transform="translate(109.738167, 217.217973)"><g><path d="M 1.875 -15.703125 C 1.875 -18.753906 2.460938 -21.476562 3.640625 -23.875 C 4.828125 -26.269531 6.523438 -28.125 8.734375 -29.4375 C 10.941406 -30.75 13.507812 -31.40625 16.4375 -31.40625 C 20.601562 -31.40625 24 -30.128906 26.625 -27.578125 C 29.257812 -25.035156 30.726562 -21.582031 31.03125 -17.21875 L 31.09375 -15.109375 C 31.09375 -10.367188 29.769531 -6.570312 27.125 -3.71875 C 24.488281 -0.863281 20.945312 0.5625 16.5 0.5625 C 12.050781 0.5625 8.5 -0.859375 5.84375 -3.703125 C 3.195312 -6.554688 1.875 -10.429688 1.875 -15.328125 Z M 10.109375 -15.109375 C 10.109375 -12.179688 10.660156 -9.941406 11.765625 -8.390625 C 12.867188 -6.835938 14.445312 -6.0625 16.5 -6.0625 C 18.488281 -6.0625 20.046875 -6.828125 21.171875 -8.359375 C 22.296875 -9.890625 22.859375 -12.335938 22.859375 -15.703125 C 22.859375 -18.566406 22.296875 -20.785156 21.171875 -22.359375 C 20.046875 -23.941406 18.46875 -24.734375 16.4375 -24.734375 C 14.425781 -24.734375 12.867188 -23.945312 11.765625 -22.375 C 10.660156 -20.8125 10.109375 -18.390625 10.109375 -15.109375 Z M 10.109375 -15.109375 "/></g></g></g><g fill="#000000" fill-opacity="1"><g transform="translate(142.736008, 217.217973)"><g><path d="M 15.984375 -6.0625 C 17.503906 -6.0625 18.738281 -6.476562 19.6875 -7.3125 C 20.632812 -8.15625 21.128906 -9.269531 21.171875 -10.65625 L 28.890625 -10.65625 C 28.867188 -8.5625 28.296875 -6.644531 27.171875 -4.90625 C 26.054688 -3.175781 24.523438 -1.832031 22.578125 -0.875 C 20.628906 0.0820312 18.476562 0.5625 16.125 0.5625 C 11.71875 0.5625 8.238281 -0.835938 5.6875 -3.640625 C 3.144531 -6.441406 1.875 -10.3125 1.875 -15.25 L 1.875 -15.78125 C 1.875 -20.53125 3.132812 -24.320312 5.65625 -27.15625 C 8.1875 -29.988281 11.660156 -31.40625 16.078125 -31.40625 C 19.929688 -31.40625 23.019531 -30.304688 25.34375 -28.109375 C 27.675781 -25.910156 28.859375 -22.988281 28.890625 -19.34375 L 21.171875 -19.34375 C 21.128906 -20.945312 20.632812 -22.242188 19.6875 -23.234375 C 18.738281 -24.234375 17.484375 -24.734375 15.921875 -24.734375 C 14.003906 -24.734375 12.554688 -24.035156 11.578125 -22.640625 C 10.597656 -21.242188 10.109375 -18.976562 10.109375 -15.84375 L 10.109375 -14.984375 C 10.109375 -11.816406 10.59375 -9.535156 11.5625 -8.140625 C 12.53125 -6.753906 14.003906 -6.0625 15.984375 -6.0625 Z M 15.984375 -6.0625 "/></g></g></g><g fill="#000000" fill-opacity="1"><g transform="translate(173.169251, 217.217973)"><g><path d="M 34.9375 -34.5625 L 22.234375 -34.5625 L 22.234375 0 L 13.671875 0 L 13.671875 -34.5625 L 1.140625 -34.5625 L 1.140625 -41.484375 L 34.9375 -41.484375 Z M 34.9375 -34.5625 "/></g></g></g><g fill="#000000" fill-opacity="1"><g transform="translate(209.273116, 217.217973)"><g><path d="M 21.03125 0 C 20.644531 -0.738281 20.367188 -1.660156 20.203125 -2.765625 C 18.210938 -0.546875 15.617188 0.5625 12.421875 0.5625 C 9.398438 0.5625 6.894531 -0.304688 4.90625 -2.046875 C 2.925781 -3.796875 1.9375 -6 1.9375 -8.65625 C 1.9375 -11.925781 3.144531 -14.4375 5.5625 -16.1875 C 7.988281 -17.9375 11.492188 -18.816406 16.078125 -18.828125 L 19.859375 -18.828125 L 19.859375 -20.609375 C 19.859375 -22.023438 19.492188 -23.160156 18.765625 -24.015625 C 18.035156 -24.867188 16.878906 -25.296875 15.296875 -25.296875 C 13.910156 -25.296875 12.820312 -24.960938 12.03125 -24.296875 C 11.25 -23.640625 10.859375 -22.734375 10.859375 -21.578125 L 2.625 -21.578125 C 2.625 -23.359375 3.171875 -25.007812 4.265625 -26.53125 C 5.367188 -28.050781 6.925781 -29.242188 8.9375 -30.109375 C 10.957031 -30.972656 13.222656 -31.40625 15.734375 -31.40625 C 19.523438 -31.40625 22.535156 -30.445312 24.765625 -28.53125 C 27.003906 -26.625 28.125 -23.941406 28.125 -20.484375 L 28.125 -7.125 C 28.144531 -4.195312 28.550781 -1.984375 29.34375 -0.484375 L 29.34375 0 Z M 14.21875 -5.734375 C 15.4375 -5.734375 16.554688 -6.003906 17.578125 -6.546875 C 18.609375 -7.085938 19.367188 -7.8125 19.859375 -8.71875 L 19.859375 -14.015625 L 16.78125 -14.015625 C 12.65625 -14.015625 10.460938 -12.59375 10.203125 -9.75 L 10.171875 -9.265625 C 10.171875 -8.234375 10.53125 -7.382812 11.25 -6.71875 C 11.976562 -6.0625 12.96875 -5.734375 14.21875 -5.734375 Z M 14.21875 -5.734375 "/></g></g></g><g fill="#000000" fill-opacity="1"><g transform="translate(240.561226, 217.217973)"><g><path d="M 11.859375 0 L 3.59375 0 L 3.59375 -43.765625 L 11.859375 -43.765625 Z M 11.859375 0 "/></g></g></g><g fill="#000000" fill-opacity="1"><g transform="translate(256.034315, 217.217973)"><g><path d="M 14.359375 -12.359375 L 11.390625 -9.40625 L 11.390625 0 L 3.15625 0 L 3.15625 -43.765625 L 11.390625 -43.765625 L 11.390625 -19.515625 L 13 -21.578125 L 20.890625 -30.828125 L 30.78125 -30.828125 L 19.640625 -17.984375 L 31.75 0 L 22.28125 0 Z M 14.359375 -12.359375 "/></g></g></g><g fill="#000000" fill-opacity="1"><g transform="translate(287.208442, 217.217973)"><g><path d="M 17.359375 0.5625 C 12.835938 0.5625 9.15625 -0.820312 6.3125 -3.59375 C 3.46875 -6.363281 2.046875 -10.054688 2.046875 -14.671875 L 2.046875 -15.46875 C 2.046875 -18.570312 2.644531 -21.34375 3.84375 -23.78125 C 5.039062 -26.21875 6.734375 -28.097656 8.921875 -29.421875 C 11.117188 -30.742188 13.625 -31.40625 16.4375 -31.40625 C 20.65625 -31.40625 23.972656 -30.070312 26.390625 -27.40625 C 28.816406 -24.75 30.03125 -20.976562 30.03125 -16.09375 L 30.03125 -12.734375 L 10.40625 -12.734375 C 10.664062 -10.722656 11.460938 -9.109375 12.796875 -7.890625 C 14.140625 -6.671875 15.835938 -6.0625 17.890625 -6.0625 C 21.066406 -6.0625 23.546875 -7.210938 25.328125 -9.515625 L 29.375 -4.984375 C 28.144531 -3.234375 26.472656 -1.867188 24.359375 -0.890625 C 22.253906 0.078125 19.921875 0.5625 17.359375 0.5625 Z M 16.40625 -24.734375 C 14.78125 -24.734375 13.457031 -24.179688 12.4375 -23.078125 C 11.414062 -21.972656 10.765625 -20.394531 10.484375 -18.34375 L 21.9375 -18.34375 L 21.9375 -19 C 21.90625 -20.832031 21.410156 -22.242188 20.453125 -23.234375 C 19.503906 -24.234375 18.15625 -24.734375 16.40625 -24.734375 Z M 16.40625 -24.734375 "/></g></g></g><g fill="#000000" fill-opacity="1"><g transform="translate(318.753019, 217.217973)"><g><path d="M 20.484375 -23.109375 C 19.367188 -23.265625 18.382812 -23.34375 17.53125 -23.34375 C 14.414062 -23.34375 12.367188 -22.285156 11.390625 -20.171875 L 11.390625 0 L 3.15625 0 L 3.15625 -30.828125 L 10.9375 -30.828125 L 11.171875 -27.15625 C 12.828125 -29.988281 15.113281 -31.40625 18.03125 -31.40625 C 18.945312 -31.40625 19.804688 -31.28125 20.609375 -31.03125 Z M 20.484375 -23.109375 "/></g></g></g></svg>